<svg width="36" height="36" viewBox="0 0 36 36" fill="none" xmlns="http://www.w3.org/2000/svg">
<path fill-rule="evenodd" clip-rule="evenodd" d="M7.96008 24.5731C8.46764 25.3484 9.0658 26.0662 9.74513 26.7101C11.4284 28.3055 13.538 29.379 15.8186 29.8006C18.0992 30.2222 20.4531 29.9739 22.5955 29.0858C24.738 28.1976 26.5771 26.7077 27.8905 24.7961C29.2039 22.8846 29.9352 20.6335 29.996 18.315C30.0568 15.9966 29.4444 13.7102 28.233 11.7325C27.0215 9.75477 25.2629 8.17049 23.17 7.17131C21.7535 6.49511 20.225 6.10649 18.6721 6.01939L19.5048 9.12724C20.3225 9.26589 21.1213 9.51761 21.8775 9.87863C23.4472 10.628 24.7662 11.8162 25.6747 13.2995C26.5833 14.7828 27.0426 16.4976 26.997 18.2364C26.9514 19.9752 26.403 21.6636 25.4179 23.0972C24.4329 24.5309 23.0535 25.6484 21.4467 26.3145C19.8398 26.9806 18.0744 27.1668 16.364 26.8506C14.6535 26.5344 13.0713 25.7293 11.8089 24.5327C11.5453 24.2828 11.298 24.0181 11.0679 23.7403L7.96008 24.5731Z" fill="#33363F"/>
<path d="M8.86858 6.0997C10.0339 5.20555 11.3219 4.48907 12.6906 3.97108C13.3197 3.73301 13.6342 3.61398 13.9304 3.7658C14.2266 3.91761 14.3197 4.26507 14.5059 4.96L17.6118 16.5511C17.7948 17.2341 17.8863 17.5756 17.731 17.8447C17.5756 18.1137 17.2341 18.2052 16.5511 18.3882L4.96 21.4941C4.26508 21.6803 3.91761 21.7734 3.63802 21.5927C3.35844 21.4121 3.30426 21.0802 3.19591 20.4164C2.96017 18.9721 2.93661 17.4983 3.12833 16.0421C3.38544 14.0891 4.0247 12.2059 5.00962 10.5C5.99453 8.79408 7.30581 7.29886 8.86858 6.0997Z" stroke="#33363F" stroke-width="3"/>
</svg>
