<svg width="36" height="37" viewBox="0 0 36 37" fill="none" xmlns="http://www.w3.org/2000/svg">
<path fill-rule="evenodd" clip-rule="evenodd" d="M12.775 7.69415C8.76505 9.63663 5.99988 13.7454 5.99988 18.5C5.99988 18.7953 6.01055 19.0882 6.03152 19.3782L15.2442 16.9096L12.775 7.69415ZM17.1222 6.53159L19.785 16.4694L19.8025 16.5345C19.8775 16.8131 19.9833 17.206 20.0297 17.5662C20.0882 18.0203 20.102 18.7384 19.6794 19.4703C19.2569 20.2022 18.6281 20.5493 18.2056 20.7257C17.8704 20.8656 17.4772 20.9705 17.1984 21.0448L17.1334 21.0622L7.19427 23.7254C9.13684 27.735 13.2455 30.5 17.9999 30.5C24.6273 30.5 29.9999 25.1274 29.9999 18.5C29.9999 11.8726 24.6273 6.49998 17.9999 6.49998C17.7047 6.49998 17.412 6.51064 17.1222 6.53159Z" fill="#1A1A1A"/>
<path d="M14.8942 6.90889C14.5177 5.50403 14.3295 4.80159 13.6813 4.50929C13.033 4.21699 12.4609 4.50173 11.3166 5.07122C10.4554 5.49982 9.63541 6.01129 8.86858 6.5997C7.30581 7.79886 5.99453 9.29408 5.00962 11C4.0247 12.7059 3.38544 14.5891 3.12833 16.5421C3.00216 17.5004 2.96923 18.4663 3.02863 19.4264C3.10757 20.7021 3.14704 21.3399 3.72432 21.7552C4.30159 22.1705 5.00403 21.9823 6.40889 21.6058L15.1022 19.2765C16.4682 18.9104 17.1513 18.7274 17.4619 18.1893C17.7726 17.6513 17.5896 16.9682 17.2235 15.6022L14.8942 6.90889Z" fill="#1A1A1A"/>
</svg>
